<svg xmlns="http://www.w3.org/2000/svg" width="124" height="166" viewBox="0 0 124 166" fill="none">
   <path d="M110.534 92.3087H98.2204V76.8971C98.2204 56.8014 81.9702 40.4543 61.9938 40.4543C42.0174 40.4543 25.7672 56.8014 25.7672 76.8971V92.3087H13.454V76.8971C13.454 69.3565 15.1652 62.2027 18.2094 55.8222C10.168 46.7599 6.7518 34.5291 9.0148 22.1611C10.912 11.8389 16.43 3.84303 23.4236 1.29209C27.4784 -0.186076 30.5722 0.680868 32.457 1.66631C38.0928 4.62266 39.9714 11.6705 42.811 22.3358C43.5302 25.0488 44.3114 27.974 45.2166 31.0738C50.4494 29.1279 56.1038 28.0676 62 28.0676C67.8962 28.0676 73.5506 29.1279 78.7834 31.0738C79.6886 27.974 80.4698 25.0488 81.189 22.3358C84.0286 11.6705 85.9072 4.62266 91.543 1.66631C93.4278 0.674631 96.5216 -0.186076 100.576 1.29209C107.57 3.84303 113.088 11.8389 114.973 22.1611C117.236 34.5291 113.82 46.7661 105.778 55.8222C108.829 62.2027 110.534 69.3565 110.534 76.8971V92.3087ZM89.8814 36.9553C93.124 39.2505 96.0752 41.9387 98.6668 44.9449C104.42 36.5624 103.416 27.4189 102.864 24.4002C101.804 18.6123 99.169 14.527 96.9866 13.2297C95.7714 15.4501 94.2958 20.9823 93.0806 25.5478C92.1568 29.0156 91.1462 32.8264 89.8876 36.9553H89.8814ZM27.0196 13.2297C24.831 14.527 22.196 18.6123 21.142 24.4002C20.5902 27.4127 19.5858 36.5561 25.3394 44.9449C27.931 41.9387 30.8822 39.2505 34.1248 36.9553C32.8662 32.8264 31.8556 29.0156 30.9318 25.5478C29.7166 20.9823 28.241 15.4501 27.0258 13.2297H27.0196ZM50.313 72.9366V62.9511C50.313 60.8805 48.6452 59.2089 46.593 59.2089H46.469C44.4106 59.2089 42.749 60.8867 42.749 62.9511V72.9366C42.749 75.0073 44.4168 76.6788 46.469 76.6788H46.593C48.6514 76.6788 50.313 75.001 50.313 72.9366ZM81.2696 72.9366V62.9511C81.2696 60.8805 79.6018 59.2089 77.5496 59.2089C75.4912 59.2089 73.8296 60.8867 73.8296 62.9511V72.9366C73.8296 75.0073 75.4974 76.6788 77.5496 76.6788C79.608 76.6788 81.2696 75.001 81.2696 72.9366Z" fill="url(#paint0_linear_773_1013)"/>
   <path d="M110.534 92.3087H98.2204V76.8971C98.2204 56.8014 81.9702 40.4543 61.9938 40.4543C42.0174 40.4543 25.7672 56.8014 25.7672 76.8971V92.3087H13.454V76.8971C13.454 69.3565 15.1652 62.2027 18.2094 55.8222C10.168 46.7599 6.7518 34.5291 9.0148 22.1611C10.912 11.8389 16.43 3.84303 23.4236 1.29209C27.4784 -0.186076 30.5722 0.680868 32.457 1.66631C38.0928 4.62266 39.9714 11.6705 42.811 22.3358C43.5302 25.0488 44.3114 27.974 45.2166 31.0738C50.4494 29.1279 56.1038 28.0676 62 28.0676C67.8962 28.0676 73.5506 29.1279 78.7834 31.0738C79.6886 27.974 80.4698 25.0488 81.189 22.3358C84.0286 11.6705 85.9072 4.62266 91.543 1.66631C93.4278 0.674631 96.5216 -0.186076 100.576 1.29209C107.57 3.84303 113.088 11.8389 114.973 22.1611C117.236 34.5291 113.82 46.7661 105.778 55.8222C108.829 62.2027 110.534 69.3565 110.534 76.8971V92.3087ZM89.8814 36.9553C93.124 39.2505 96.0752 41.9387 98.6668 44.9449C104.42 36.5624 103.416 27.4189 102.864 24.4002C101.804 18.6123 99.169 14.527 96.9866 13.2297C95.7714 15.4501 94.2958 20.9823 93.0806 25.5478C92.1568 29.0156 91.1462 32.8264 89.8876 36.9553H89.8814ZM27.0196 13.2297C24.831 14.527 22.196 18.6123 21.142 24.4002C20.5902 27.4127 19.5858 36.5561 25.3394 44.9449C27.931 41.9387 30.8822 39.2505 34.1248 36.9553C32.8662 32.8264 31.8556 29.0156 30.9318 25.5478C29.7166 20.9823 28.241 15.4501 27.0258 13.2297H27.0196Z" fill="url(#paint1_linear_773_1013)"/>
   <path d="M99.231 86.1154H6.2062C2.7776 86.1154 0 88.7537 0 92.0032V141.999C0 154.978 11.0918 165.5 24.769 165.5H117.794C121.222 165.5 124 162.862 124 159.612V109.616C124 96.6372 112.908 86.1154 99.231 86.1154ZM67.7784 129.818V143.533C67.7784 146.14 65.6766 148.255 63.085 148.255H60.9212C58.3296 148.255 56.2278 146.14 56.2278 143.533V129.818C52.5016 127.76 49.972 123.774 49.972 119.196C49.972 112.51 55.3598 107.09 62.0062 107.09C68.6526 107.09 74.0404 112.51 74.0404 119.196C74.0404 123.774 71.5108 127.76 67.7846 129.818H67.7784Z" fill="url(#paint2_linear_773_1013)"/>
   <defs>
     <linearGradient id="paint0_linear_773_1013" x1="70.556" y1="-4.24637" x2="52.2105" y2="99.182" gradientUnits="userSpaceOnUse">
       <stop offset="0.32" stop-color="#F18A24"/>
       <stop offset="0.76" stop-color="#F16824"/>
     </linearGradient>
     <linearGradient id="paint1_linear_773_1013" x1="106.944" y1="5.4896" x2="16.5212" y2="95.3818" gradientUnits="userSpaceOnUse">
       <stop offset="0.6" stop-color="#ED1C24" stop-opacity="0"/>
       <stop offset="0.64" stop-color="#ED1C24" stop-opacity="0.02"/>
       <stop offset="0.68" stop-color="#ED1F27" stop-opacity="0.07"/>
       <stop offset="0.73" stop-color="#EE232B" stop-opacity="0.16"/>
       <stop offset="0.77" stop-color="#EF2831" stop-opacity="0.28"/>
       <stop offset="0.81" stop-color="#F12F38" stop-opacity="0.43"/>
       <stop offset="0.86" stop-color="#F33841" stop-opacity="0.62"/>
       <stop offset="0.91" stop-color="#F5424C" stop-opacity="0.85"/>
       <stop offset="0.93" stop-color="#F74A54"/>
     </linearGradient>
     <linearGradient id="paint2_linear_773_1013" x1="18.3148" y1="169.754" x2="106.205" y2="82.3848" gradientUnits="userSpaceOnUse">
       <stop stop-color="#F0322B"/>
       <stop offset="0.22" stop-color="#F03929"/>
       <stop offset="0.56" stop-color="#F04F27"/>
       <stop offset="0.86" stop-color="#F16824"/>
     </linearGradient>
   </defs>
 </svg>
